<?xml version="1.0" standalone="no"?>
<!DOCTYPE svg PUBLIC "-//W3C//DTD SVG 20010904//EN"
 "http://www.w3.org/TR/2001/REC-SVG-20010904/DTD/svg10.dtd">
<svg version="1.0" xmlns="http://www.w3.org/2000/svg"
 width="1819.000000pt" height="838.000000pt" viewBox="0 0 1819.000000 838.000000"
 preserveAspectRatio="xMidYMid meet">

<g transform="translate(0.000000,838.000000) scale(0.100000,-0.100000)"
fill="#000000" stroke="none">
<path d="M540 8020 c-18 -18 -20 -33 -20 -195 0 -227 -10 -215 180 -215 190 0
180 -12 180 215 0 227 10 215 -180 215 -127 0 -142 -2 -160 -20z m300 -195 l0
-185 -140 0 -140 0 0 185 0 185 140 0 140 0 0 -185z"/>
<path d="M605 7950 c-3 -5 0 -13 8 -16 23 -9 177 0 180 11 3 14 -179 19 -188
5z"/>
<path d="M605 7871 c-7 -12 12 -24 25 -16 11 7 4 25 -10 25 -5 0 -11 -4 -15
-9z"/>
<path d="M685 7871 c-7 -12 12 -24 25 -16 11 7 4 25 -10 25 -5 0 -11 -4 -15
-9z"/>
<path d="M765 7871 c-7 -12 12 -24 25 -16 11 7 4 25 -10 25 -5 0 -11 -4 -15
-9z"/>
<path d="M605 7791 c-7 -12 12 -24 25 -16 11 7 4 25 -10 25 -5 0 -11 -4 -15
-9z"/>
<path d="M685 7791 c-7 -12 12 -24 25 -16 11 7 4 25 -10 25 -5 0 -11 -4 -15
-9z"/>
<path d="M764 7787 c-11 -29 0 -92 16 -92 11 0 15 12 15 49 0 49 -19 74 -31
43z"/>
<path d="M605 7711 c-7 -12 12 -24 25 -16 11 7 4 25 -10 25 -5 0 -11 -4 -15
-9z"/>
<path d="M685 7711 c-7 -12 12 -24 25 -16 11 7 4 25 -10 25 -5 0 -11 -4 -15
-9z"/>
<path d="M2700 7755 c0 -128 1 -135 20 -135 18 0 20 7 20 54 0 66 27 108 57
90 14 -9 19 -26 21 -78 3 -58 5 -66 22 -66 18 0 20 7 20 73 0 59 -4 77 -18 90
-23 21 -51 22 -80 1 l-22 -15 0 60 c0 54 -2 61 -20 61 -19 0 -20 -7 -20 -135z"/>
<path d="M1190 7873 c-30 -11 -50 -37 -50 -64 0 -28 6 -35 79 -82 38 -24 45
-36 32 -55 -10 -16 -44 -19 -83 -9 -23 6 -28 4 -28 -12 0 -36 92 -43 134 -10
21 16 26 28 24 53 -2 25 -13 38 -58 68 -30 20 -55 42 -55 49 0 22 44 38 77 28
26 -7 29 -6 26 14 -2 18 -10 22 -43 24 -22 1 -47 -1 -55 -4z"/>
<path d="M2090 7750 c0 -108 3 -130 15 -130 11 0 15 20 17 103 l3 102 40 -102
c26 -67 45 -103 55 -103 10 0 27 32 49 90 18 50 36 92 40 94 3 2 5 -38 3 -90
l-3 -94 25 0 26 0 0 131 0 130 -32 -3 c-31 -3 -34 -7 -67 -95 -20 -51 -38 -93
-41 -93 -3 0 -21 43 -40 95 -33 88 -37 95 -62 95 l-28 0 0 -130z"/>
<path d="M16716 7868 c-20 -66 -14 -103 20 -121 16 -8 21 -16 15 -26 -7 -11
-13 -11 -32 3 -26 18 -39 20 -39 7 0 -5 16 -15 35 -22 22 -8 35 -20 35 -31 0
-38 18 -16 21 26 4 40 2 44 -23 54 -22 8 -28 17 -27 39 1 51 10 58 69 58 59 0
68 -7 69 -58 1 -22 -5 -31 -26 -39 -26 -10 -28 -14 -24 -54 1 -24 8 -44 13
-44 6 0 8 17 6 40 -3 32 0 41 15 46 26 8 38 48 28 92 -5 25 -12 36 -22 33 -29
-8 -95 -7 -112 1 -12 6 -19 5 -21 -4z"/>
<path d="M1983 7843 c-7 -2 -13 -13 -13 -24 0 -10 -7 -19 -15 -19 -8 0 -15 -7
-15 -15 0 -8 7 -15 15 -15 12 0 15 -14 15 -63 0 -70 10 -87 52 -87 33 0 39 25
8 33 -17 4 -20 14 -20 61 0 49 2 56 20 56 11 0 20 7 20 15 0 8 -9 15 -20 15
-15 0 -20 7 -20 25 0 25 -4 28 -27 18z"/>
<path d="M2608 7842 c-10 -2 -18 -12 -18 -23 0 -10 -7 -19 -15 -19 -8 0 -15
-7 -15 -15 0 -8 7 -15 15 -15 12 0 15 -13 15 -59 0 -68 17 -94 58 -89 30 4 43
28 14 28 -24 0 -32 18 -32 76 0 40 2 44 25 44 16 0 25 6 25 15 0 9 -9 15 -24
15 -18 0 -26 6 -28 23 -2 15 -9 21 -20 19z"/>
<path d="M15710 7760 c0 -53 4 -90 10 -90 6 0 10 5 10 11 0 8 5 7 15 -1 22
-18 63 2 71 35 12 49 -42 95 -74 63 -9 -9 -12 -3 -12 30 0 23 -4 42 -10 42 -6
0 -10 -37 -10 -90z m90 -30 c0 -18 -7 -33 -18 -39 -26 -14 -52 5 -52 39 0 34
26 53 52 39 11 -6 18 -21 18 -39z"/>
<path d="M17630 7760 c0 -53 4 -90 10 -90 6 0 10 5 10 11 0 8 5 7 15 -1 22
-18 63 2 71 35 12 49 -42 95 -74 63 -9 -9 -12 -3 -12 30 0 23 -4 42 -10 42 -6
0 -10 -37 -10 -90z m90 -30 c0 -18 -7 -33 -18 -39 -26 -14 -52 5 -52 39 0 34
26 53 52 39 11 -6 18 -21 18 -39z"/>
<path d="M14192 7753 c1 -49 3 -71 5 -50 4 33 7 37 34 37 16 0 29 5 29 10 0 6
-13 10 -30 10 -27 0 -30 3 -30 30 0 28 3 30 35 30 19 0 35 5 35 10 0 6 -18 10
-40 10 l-40 0 2 -87z"/>
<path d="M15597 7823 c-3 -10 -17 -48 -31 -85 -14 -38 -21 -68 -16 -68 5 0 12
11 16 25 5 21 12 25 45 25 34 0 41 -4 50 -27 6 -16 13 -23 15 -18 5 14 -52
159 -64 163 -5 1 -12 -5 -15 -15z m39 -80 c-2 -2 -15 -3 -29 -1 -25 3 -25 3
-10 38 l15 35 15 -34 c8 -18 12 -35 9 -38z"/>
<path d="M17039 7811 c-33 -33 -36 -58 -14 -101 17 -32 51 -46 90 -36 21 5 25
12 25 46 0 36 -3 40 -25 40 -14 0 -25 -4 -25 -10 0 -5 9 -10 20 -10 15 0 20
-7 20 -25 0 -22 -4 -25 -34 -25 -43 0 -66 22 -66 64 0 42 26 66 74 66 22 0 35
4 31 10 -13 21 -66 10 -96 -19z"/>
<path d="M17333 7755 c0 -49 2 -71 4 -47 l4 42 45 0 44 0 0 -40 c0 -22 5 -40
10 -40 6 0 10 35 10 85 0 50 -4 85 -10 85 -5 0 -10 -16 -10 -35 0 -35 0 -35
-44 -35 -44 0 -45 0 -49 38 -2 20 -4 -3 -4 -53z"/>
<path d="M14561 7813 c0 -13 -6 -23 -12 -23 -8 0 -8 -4 -1 -13 6 -7 12 -33 14
-57 2 -36 7 -45 23 -48 19 -3 19 -2 3 11 -11 9 -18 28 -18 50 0 24 6 39 18 46
15 9 16 10 0 11 -9 0 -19 10 -21 23 l-4 22 -2 -22z"/>
<path d="M16141 7813 c0 -13 -6 -23 -12 -23 -8 0 -8 -4 -1 -13 6 -7 12 -33 14
-57 2 -36 7 -45 23 -48 19 -3 19 -2 3 11 -11 9 -18 28 -18 50 0 24 6 39 18 46
15 9 16 10 0 11 -9 0 -19 10 -21 23 l-4 22 -2 -22z"/>
<path d="M17250 7806 c0 -8 -6 -17 -12 -19 -10 -4 -10 -6 0 -6 7 -1 12 -17 12
-44 0 -41 13 -67 34 -67 6 0 5 5 -2 12 -7 7 -12 31 -12 54 0 32 4 44 18 47 16
4 16 5 0 6 -10 0 -18 8 -18 16 0 8 -4 15 -10 15 -5 0 -10 -6 -10 -14z"/>
<path d="M1340 7710 c0 -83 1 -90 20 -90 18 0 20 7 20 64 0 71 17 99 48 79 13
-7 18 -28 20 -77 3 -58 5 -66 22 -66 18 0 20 7 20 59 0 63 19 97 47 87 8 -3
17 -6 19 -6 2 0 4 -31 4 -70 0 -63 2 -70 20 -70 18 0 20 7 20 74 0 54 -4 79
-16 90 -19 20 -53 20 -81 1 -18 -13 -22 -13 -33 0 -15 17 -43 19 -71 5 -13 -7
-19 -7 -19 0 0 5 -9 10 -20 10 -19 0 -20 -7 -20 -90z"/>
<path d="M1668 7793 c-10 -2 -18 -13 -18 -23 0 -16 4 -17 29 -7 33 12 61 4 61
-17 0 -10 -14 -18 -37 -22 -67 -12 -93 -53 -55 -87 21 -19 45 -21 73 -7 13 7
19 7 19 0 0 -5 9 -10 20 -10 18 0 20 7 20 73 0 59 -4 77 -18 90 -18 16 -56 20
-94 10z m72 -112 c0 -31 -56 -44 -67 -15 -7 19 13 34 45 34 15 0 22 -6 22 -19z"/>
<path d="M1820 7710 c0 -83 1 -90 20 -90 18 0 20 7 20 54 0 56 16 86 46 86 8
0 14 9 14 20 0 24 -17 26 -42 3 -17 -15 -18 -15 -18 0 0 10 -8 17 -20 17 -19
0 -20 -7 -20 -90z"/>
<path d="M2423 7793 c-7 -2 -13 -12 -13 -20 0 -11 7 -14 26 -9 14 4 34 4 45 1
32 -10 22 -32 -18 -40 -58 -11 -73 -22 -73 -56 0 -39 37 -58 81 -42 16 6 29 7
29 2 0 -5 9 -9 20 -9 18 0 20 7 20 74 0 66 -3 77 -22 90 -22 15 -69 20 -95 9z
m77 -106 c0 -18 -21 -37 -41 -37 -22 0 -33 16 -25 35 7 19 66 20 66 2z"/>
<path d="M14322 7783 c-21 -8 -33 -50 -22 -78 11 -29 51 -42 77 -25 16 10 15
11 -6 6 -29 -6 -61 9 -61 29 0 11 12 15 40 15 33 0 40 3 40 20 0 28 -36 46
-68 33z m58 -33 c0 -6 -16 -10 -35 -10 -38 0 -46 13 -18 29 19 10 53 -2 53
-19z"/>
<path d="M14440 7779 c-12 -8 -12 -10 5 -8 55 4 63 -16 13 -29 -25 -6 -34 -14
-36 -34 -4 -31 29 -48 53 -28 11 9 15 9 15 1 0 -6 5 -11 10 -11 13 0 13 76 0
101 -12 21 -37 24 -60 8z m34 -86 c-13 -9 -21 -10 -31 -1 -19 15 -11 31 18 38
30 8 39 -18 13 -37z"/>
<path d="M14632 7744 c-2 -62 15 -83 53 -66 18 8 25 8 29 -1 2 -7 4 17 4 53
-1 64 -1 64 -7 17 -8 -53 -25 -71 -52 -56 -12 6 -19 24 -22 57 l-3 47 -2 -51z"/>
<path d="M14772 7730 l1 -65 7 50 c4 28 3 57 -1 65 -5 9 -8 -11 -7 -50z"/>
<path d="M14795 7780 c-3 -5 3 -10 14 -10 12 0 21 5 21 10 0 6 -6 10 -14 10
-8 0 -18 -4 -21 -10z"/>
<path d="M14860 7770 c-24 -24 -25 -48 -4 -78 16 -24 58 -30 70 -10 5 8 2 9
-10 5 -22 -9 -56 9 -56 28 0 11 12 15 40 15 44 0 52 16 24 44 -21 21 -40 20
-64 -4z m64 -16 c4 -10 -3 -14 -29 -14 -37 0 -46 13 -18 28 20 12 39 6 47 -14z"/>
<path d="M14982 7778 c-20 -20 -14 -37 18 -53 17 -9 30 -19 30 -24 0 -13 -28
-21 -47 -14 -14 5 -16 3 -6 -7 7 -8 22 -10 37 -6 37 9 34 41 -5 61 -25 13 -28
19 -18 31 7 9 20 12 32 8 13 -4 17 -2 13 5 -9 15 -39 14 -54 -1z"/>
<path d="M15865 7776 c-39 -29 -14 -106 35 -106 48 0 75 65 41 99 -24 24 -49
27 -76 7z m56 -6 c26 -15 26 -66 -1 -80 -14 -8 -26 -8 -40 0 -26 14 -27 65 -2
79 21 13 20 13 43 1z"/>
<path d="M15990 7746 c0 -62 36 -96 68 -64 9 9 12 9 12 0 0 -7 5 -12 10 -12 6
0 10 27 10 60 0 33 -4 60 -10 60 -5 0 -10 -20 -10 -44 0 -47 -17 -70 -44 -60
-12 4 -16 19 -16 55 0 27 -4 49 -10 49 -5 0 -10 -20 -10 -44z"/>
<path d="M17193 7730 c0 -36 2 -50 4 -32 2 17 2 47 0 65 -2 17 -4 3 -4 -33z"/>
<path d="M17490 7746 c0 -62 36 -96 68 -64 9 9 12 9 12 0 0 -7 5 -12 10 -12 6
0 10 27 10 60 0 33 -4 60 -10 60 -5 0 -10 -20 -10 -44 0 -47 -17 -70 -44 -60
-12 4 -16 19 -16 55 0 27 -4 49 -10 49 -5 0 -10 -20 -10 -44z"/>
<path d="M4440 6295 l0 -265 55 0 55 0 0 265 0 265 -55 0 -55 0 0 -265z"/>
<path d="M6850 6295 l0 -265 55 0 55 0 0 123 c0 139 8 157 68 157 45 0 52 -21
52 -159 l0 -121 55 0 55 0 0 135 c0 154 -11 195 -59 219 -44 23 -93 20 -135
-9 l-36 -24 0 104 0 105 -55 0 -55 0 0 -265z"/>
<path d="M8550 6295 l0 -265 55 0 c42 0 55 3 55 15 0 19 9 19 31 -1 26 -23 89
-29 131 -11 19 8 48 32 64 53 26 33 29 47 32 120 4 71 1 88 -19 123 -46 82
-143 95 -216 28 l-23 -20 0 111 0 112 -55 0 -55 0 0 -265z m244 -7 c24 -34 21
-119 -5 -152 -20 -26 -69 -36 -95 -18 -39 25 -46 124 -13 166 27 35 90 37 113
4z"/>
<path d="M8980 6295 l0 -265 55 0 55 0 0 265 0 265 -55 0 -55 0 0 -265z"/>
<path d="M12270 6295 l0 -265 50 0 c43 0 50 3 50 20 0 25 12 25 35 0 41 -46
132 -33 184 25 62 71 63 222 0 284 -50 50 -145 49 -188 -2 -7 -10 -17 -17 -22
-17 -5 0 -9 50 -9 110 l0 110 -50 0 -50 0 0 -265z m235 0 c21 -20 25 -34 25
-80 0 -49 -4 -60 -29 -86 -32 -32 -47 -35 -85 -18 -33 16 -50 59 -43 116 9 83
81 120 132 68z"/>
<path d="M3731 6528 c-76 -21 -111 -66 -111 -140 0 -70 27 -100 145 -158 58
-29 71 -40 73 -62 5 -42 -34 -62 -104 -55 -31 3 -66 13 -79 21 -14 9 -27 16
-30 16 -3 0 -5 -24 -5 -54 l0 -55 57 -11 c70 -15 158 -8 208 16 54 25 77 67
72 132 -5 67 -36 102 -135 149 -74 35 -97 59 -86 88 14 35 98 46 161 20 19 -8
37 -15 39 -15 2 0 4 22 4 50 0 48 -1 49 -37 59 -46 13 -126 13 -172 -1z"/>
<path d="M10775 6531 c-75 -19 -116 -62 -122 -128 -7 -70 22 -108 121 -158 71
-37 106 -65 106 -87 0 -4 -9 -17 -20 -28 -27 -27 -109 -27 -167 0 l-43 19 0
-50 c0 -45 3 -51 28 -61 15 -6 65 -12 112 -12 68 -1 92 3 119 19 53 31 76 69
76 125 0 66 -24 96 -117 145 -91 48 -108 62 -108 86 0 44 113 67 170 34 37
-21 40 -19 40 34 0 37 -4 50 -17 56 -29 11 -145 15 -178 6z"/>
<path d="M13365 6531 c-87 -23 -125 -67 -125 -145 0 -61 34 -98 136 -151 86
-43 102 -69 68 -106 -23 -26 -111 -26 -164 0 l-40 19 0 -49 c0 -45 3 -51 28
-61 42 -17 180 -15 224 5 48 21 78 69 78 127 0 71 -25 102 -124 150 -67 33
-88 48 -93 68 -13 54 81 82 162 48 l35 -15 0 48 c0 37 -4 50 -17 56 -29 10
-136 15 -168 6z"/>
<path d="M5550 6280 l0 -250 50 0 50 0 1 198 c0 149 3 190 11 167 23 -67 117
-331 123 -348 6 -14 17 -17 53 -15 l46 3 67 195 68 195 0 -197 1 -198 55 0 55
0 0 250 0 250 -83 0 -82 0 -62 -182 c-34 -100 -64 -175 -67 -167 -2 8 -30 89
-61 182 l-57 167 -84 0 -84 0 0 -250z"/>
<path d="M7450 6281 l0 -251 55 0 55 0 0 84 0 83 66 7 c129 13 189 68 189 171
-1 41 -6 69 -19 88 -34 51 -68 61 -213 65 l-133 4 0 -251z m230 139 c12 -12
20 -33 20 -54 0 -47 -37 -76 -96 -76 l-44 0 0 75 0 75 50 0 c37 0 55 -5 70
-20z"/>
<path d="M6658 6483 c-47 -14 -48 -15 -48 -54 0 -37 -2 -39 -30 -39 -28 0 -30
-2 -30 -40 0 -38 2 -40 30 -40 l30 0 0 -105 c0 -122 12 -157 61 -174 76 -26
129 -8 129 44 0 33 -2 35 -34 35 -42 0 -46 9 -46 116 l0 84 40 0 40 0 0 40 0
40 -40 0 -40 0 0 55 c0 30 -3 55 -7 54 -5 -1 -29 -8 -55 -16z"/>
<path d="M11093 6478 c-30 -10 -33 -15 -33 -49 0 -37 -2 -39 -30 -39 -28 0
-30 -2 -30 -40 0 -38 2 -40 30 -40 l30 0 0 -105 c0 -129 12 -159 70 -176 27
-8 50 -9 72 -3 29 8 33 14 36 47 3 35 2 37 -21 32 -44 -11 -57 15 -57 116 l0
89 40 0 40 0 0 40 0 40 -40 0 -40 0 0 50 c0 55 -5 58 -67 38z"/>
<path d="M13683 6478 c-30 -10 -33 -15 -33 -49 0 -37 -2 -39 -30 -39 -28 0
-30 -2 -30 -40 0 -38 2 -40 30 -40 l30 0 0 -115 c0 -109 1 -117 24 -140 28
-28 84 -41 123 -28 23 8 29 16 31 47 3 34 2 36 -21 31 -44 -11 -57 15 -57 116
l0 89 40 0 40 0 0 40 0 40 -40 0 -40 0 0 50 c0 55 -5 58 -67 38z"/>
<path d="M4119 6391 c-79 -26 -121 -89 -121 -181 0 -93 35 -149 109 -176 80
-28 179 -8 230 47 71 77 52 237 -33 290 -39 24 -140 35 -185 20z m117 -89 c20
-13 34 -50 34 -92 0 -42 -14 -79 -34 -92 -23 -16 -86 -8 -106 12 -34 34 -25
147 14 172 6 4 27 8 46 8 19 0 40 -4 46 -8z"/>
<path d="M5075 6382 c-69 -33 -105 -94 -105 -180 0 -137 113 -209 266 -171 43
11 44 12 44 51 0 34 -3 39 -17 33 -10 -4 -44 -10 -75 -13 -51 -4 -59 -2 -82
21 -50 50 -39 57 89 57 l115 0 0 51 c0 99 -50 157 -143 165 -38 4 -63 0 -92
-14z m123 -80 c6 -9 12 -24 12 -34 0 -16 -9 -18 -65 -18 -70 0 -78 8 -47 46
29 37 73 39 100 6z"/>
<path d="M6270 6387 c-44 -12 -45 -13 -48 -54 l-3 -42 35 14 c47 20 120 19
140 -1 30 -29 19 -41 -46 -48 -116 -14 -158 -46 -158 -124 0 -54 12 -77 52
-98 43 -22 102 -13 139 22 l29 28 0 -27 c0 -26 2 -27 50 -27 l50 0 0 133 c0
106 -4 139 -18 167 -31 64 -114 85 -222 57z m140 -211 c0 -35 -37 -76 -69 -76
-33 0 -51 16 -51 46 0 34 27 48 98 53 17 1 22 -4 22 -23z"/>
<path d="M8009 6371 l-29 -29 0 24 c0 22 -3 24 -55 24 l-55 0 0 -180 0 -180
55 0 55 0 0 109 c0 96 3 111 21 136 18 22 28 26 60 23 l39 -4 0 53 c0 52 0 53
-31 53 -20 0 -40 -10 -60 -29z"/>
<path d="M8227 6386 c-50 -18 -76 -42 -98 -91 -50 -108 -1 -230 107 -265 53
-18 138 -7 184 23 84 56 103 199 38 282 -45 58 -148 80 -231 51z m140 -102
c10 -16 17 -46 17 -74 0 -70 -23 -100 -78 -100 -61 0 -81 25 -81 100 0 75 20
100 81 100 36 0 47 -5 61 -26z"/>
<path d="M9255 6386 c-43 -18 -93 -79 -101 -121 -10 -57 1 -143 22 -173 11
-15 40 -37 65 -50 36 -20 55 -23 109 -19 88 5 110 18 110 64 0 32 -2 35 -22
28 -13 -4 -46 -10 -73 -12 -41 -4 -56 0 -78 17 -15 12 -27 30 -27 41 0 18 8
19 116 19 l117 0 -6 59 c-3 33 -13 73 -23 90 -35 60 -138 88 -209 57z m120
-89 c28 -40 20 -47 -50 -47 -67 0 -74 5 -54 41 21 41 78 44 104 6z"/>
<path d="M9715 6389 c-11 -6 -30 -21 -42 -32 l-23 -20 0 26 c0 26 -2 27 -55
27 l-55 0 0 -180 0 -180 55 0 55 0 0 118 c0 138 10 162 65 162 24 0 38 -6 45
-19 5 -11 10 -74 10 -140 l0 -121 55 0 55 0 0 118 c0 138 10 162 65 162 24 0
38 -6 45 -19 5 -11 10 -74 10 -140 l0 -121 56 0 55 0 -3 149 c-3 134 -5 153
-24 178 -39 52 -127 56 -181 8 l-28 -24 -27 26 c-30 29 -101 41 -133 22z"/>
<path d="M10243 6389 c-41 -12 -83 -62 -83 -99 0 -62 23 -86 123 -124 41 -17
58 -43 36 -57 -15 -11 -113 -6 -141 6 -16 6 -18 1 -18 -33 0 -23 5 -44 11 -47
21 -13 125 -17 165 -6 61 16 94 54 94 106 0 58 -26 87 -100 114 -52 19 -61 26
-58 44 3 19 10 22 50 25 26 2 56 -2 68 -8 19 -10 20 -8 20 33 0 42 -2 45 -31
51 -42 8 -97 6 -136 -5z"/>
<path d="M11375 6382 c-69 -33 -105 -94 -105 -179 1 -134 99 -203 244 -173
l56 11 0 39 c0 38 -1 39 -26 30 -28 -11 -104 -13 -129 -4 -13 6 -45 53 -45 68
0 3 53 7 118 8 l117 3 -2 54 c-4 93 -52 148 -138 157 -37 3 -61 0 -90 -14z
m115 -72 c11 -11 20 -29 20 -40 0 -18 -7 -20 -70 -20 -43 0 -70 4 -70 11 0 19
58 69 79 69 12 0 30 -9 41 -20z"/>
<path d="M11840 6389 c-14 -5 -35 -20 -47 -31 l-23 -21 0 26 c0 26 -2 27 -55
27 l-55 0 0 -265 0 -265 55 0 55 0 0 106 0 105 26 -20 c40 -32 85 -36 137 -13
65 29 92 82 92 182 0 83 -18 128 -60 156 -31 20 -93 27 -125 13z m54 -90 c22
-18 26 -28 26 -74 0 -65 -14 -99 -47 -114 -34 -16 -47 -14 -77 10 -23 18 -26
28 -26 80 0 68 11 96 43 109 35 14 52 12 81 -11z"/>
<path d="M13965 6381 c-69 -31 -105 -93 -105 -178 1 -134 99 -203 244 -173
l56 11 0 39 c0 38 -1 39 -26 30 -14 -6 -47 -10 -74 -10 -52 0 -84 19 -95 58
-6 22 -6 22 109 22 l116 0 0 53 c0 72 -25 117 -80 145 -53 27 -92 28 -145 3z
m115 -71 c11 -11 20 -29 20 -40 0 -18 -7 -20 -70 -20 -38 0 -70 2 -70 5 0 17
26 55 44 63 33 16 54 14 76 -8z"/>
<path d="M14425 6387 c-17 -8 -36 -21 -44 -30 -19 -24 -31 -21 -31 8 0 23 -3
25 -50 25 l-50 0 0 -265 0 -265 50 0 50 0 0 105 c0 58 3 105 7 105 4 0 17 -10
31 -22 32 -31 109 -32 149 -2 92 67 100 262 13 326 -34 25 -88 31 -125 15z
m64 -91 c18 -19 26 -103 12 -138 -24 -64 -107 -74 -136 -18 -8 16 -15 50 -15
75 0 38 5 52 30 77 26 25 36 29 63 24 17 -4 38 -13 46 -20z"/>
<path d="M4631 6248 c28 -79 57 -159 63 -178 13 -35 14 -35 77 -38 l64 -2 66
180 66 180 -57 0 -57 0 -39 -135 c-20 -74 -38 -134 -40 -132 -1 1 -19 62 -39
135 l-38 132 -58 0 -58 0 50 -142z"/>
<path d="M12726 6206 c72 -182 73 -185 59 -220 -18 -42 -47 -60 -86 -52 -28 5
-29 4 -29 -34 0 -37 2 -39 34 -46 63 -11 131 27 165 93 13 25 161 426 161 436
0 4 -22 7 -49 7 l-48 0 -39 -135 c-21 -74 -42 -135 -46 -135 -5 0 -8 5 -8 11
0 7 -16 67 -36 135 l-37 124 -57 0 -58 0 74 -184z"/>
<path d="M3720 5580 c0 -48 -1 -50 -21 -40 -27 15 -66 5 -79 -21 -6 -11 -10
-36 -8 -57 2 -28 10 -40 30 -52 24 -13 31 -13 50 -1 16 10 23 10 26 2 2 -6 8
-11 13 -11 5 0 9 52 9 115 0 70 -4 115 -10 115 -5 0 -10 -23 -10 -50z m-12
-62 c7 -7 12 -26 12 -43 0 -36 -15 -55 -45 -55 -30 0 -45 19 -45 55 0 36 15
55 45 55 12 0 26 -5 33 -12z"/>
<path d="M4660 5580 c0 -47 -1 -50 -19 -40 -48 25 -91 -7 -91 -68 0 -62 42
-89 88 -56 20 14 22 14 22 0 0 -9 5 -16 10 -16 6 0 10 45 10 115 0 70 -4 115
-10 115 -5 0 -10 -23 -10 -50z m-12 -62 c16 -16 15 -60 -1 -82 -18 -25 -58
-17 -76 15 -13 24 -13 29 2 53 19 28 54 35 75 14z"/>
<path d="M5330 5515 c0 -118 17 -162 22 -59 3 64 23 88 56 68 12 -8 18 -27 20
-68 4 -72 22 -74 22 -2 0 38 -6 61 -19 77 -17 22 -22 23 -50 12 l-31 -11 0 49
c0 27 -4 49 -10 49 -6 0 -10 -45 -10 -115z"/>
<path d="M5880 5515 c0 -70 4 -115 10 -115 6 0 10 45 10 115 0 70 -4 115 -10
115 -6 0 -10 -45 -10 -115z"/>
<path d="M6830 5515 c0 -70 4 -115 10 -115 6 0 10 22 10 48 0 58 17 85 51 80
22 -3 24 -8 27 -65 4 -80 22 -83 22 -4 0 83 -36 116 -82 74 -17 -15 -18 -14
-18 40 0 32 -4 57 -10 57 -6 0 -10 -45 -10 -115z"/>
<path d="M7106 5608 c-9 -12 -16 -30 -16 -39 0 -10 -6 -20 -12 -23 -10 -5 -10
-7 0 -12 8 -4 12 -28 12 -70 0 -36 4 -64 10 -64 6 0 10 28 10 65 0 58 2 65 20
65 11 0 20 5 20 10 0 6 -9 10 -20 10 -11 0 -20 6 -20 14 0 25 12 46 26 46 8 0
14 5 14 10 0 18 -29 10 -44 -12z"/>
<path d="M7780 5580 c0 -48 -1 -50 -20 -38 -17 11 -25 10 -47 -2 -77 -43 -37
-168 42 -132 15 7 25 8 25 2 0 -6 5 -10 10 -10 6 0 10 45 10 115 0 70 -4 115
-10 115 -5 0 -10 -23 -10 -50z m-16 -56 c11 -4 16 -19 16 -43 0 -42 -14 -61
-45 -61 -28 0 -45 18 -45 48 0 51 29 73 74 56z"/>
<path d="M8340 5515 c0 -70 4 -115 10 -115 6 0 10 45 10 115 0 70 -4 115 -10
115 -6 0 -10 -45 -10 -115z"/>
<path d="M8670 5580 c0 -48 -1 -50 -20 -38 -17 11 -25 10 -47 -2 -77 -43 -37
-168 42 -132 15 7 25 8 25 2 0 -6 5 -10 10 -10 6 0 10 45 10 115 0 70 -4 115
-10 115 -5 0 -10 -23 -10 -50z m-16 -56 c11 -4 16 -19 16 -43 0 -42 -14 -61
-45 -61 -28 0 -45 18 -45 48 0 51 29 73 74 56z"/>
<path d="M9130 5515 c0 -70 4 -115 10 -115 6 0 10 45 10 115 0 70 -4 115 -10
115 -6 0 -10 -45 -10 -115z"/>
<path d="M12000 5515 c0 -70 4 -115 10 -115 6 0 10 5 10 10 0 7 6 7 19 0 48
-25 91 7 91 68 0 62 -42 89 -88 56 -22 -15 -22 -15 -22 40 0 31 -4 56 -10 56
-6 0 -10 -45 -10 -115z m98 3 c7 -7 12 -26 12 -43 0 -36 -15 -55 -45 -55 -41
0 -59 46 -35 91 12 21 50 25 68 7z"/>
<path d="M12180 5515 c0 -70 4 -115 10 -115 6 0 10 45 10 115 0 70 -4 115 -10
115 -6 0 -10 -45 -10 -115z"/>
<path d="M13750 5515 c0 -70 4 -115 10 -115 6 0 10 24 10 53 0 57 12 77 46 77
27 0 34 -17 34 -81 0 -27 5 -49 10 -49 17 0 12 116 -6 134 -20 21 -43 20 -66
-1 -17 -15 -18 -14 -18 40 0 32 -4 57 -10 57 -6 0 -10 -45 -10 -115z"/>
<path d="M14670 5515 c0 -70 4 -115 10 -115 6 0 10 24 10 53 0 57 12 77 46 77
27 0 34 -17 34 -81 0 -27 5 -49 10 -49 17 0 12 116 -6 134 -20 21 -43 20 -66
-1 -17 -15 -18 -14 -18 40 0 32 -4 57 -10 57 -6 0 -10 -45 -10 -115z"/>
<path d="M6660 5605 c0 -8 5 -15 10 -15 6 0 10 7 10 15 0 8 -4 15 -10 15 -5 0
-10 -7 -10 -15z"/>
<path d="M8266 5611 c-4 -5 -2 -12 3 -15 5 -4 12 -2 15 3 4 5 2 12 -3 15 -5 4
-12 2 -15 -3z"/>
<path d="M9476 5611 c-4 -5 -2 -12 3 -15 5 -4 12 -2 15 3 4 5 2 12 -3 15 -5 4
-12 2 -15 -3z"/>
<path d="M3447 5512 c-40 -105 -42 -112 -28 -112 5 0 14 14 20 30 9 27 14 30
56 30 42 0 47 -3 56 -30 10 -27 29 -42 29 -22 1 19 -76 202 -85 202 -6 0 -27
-44 -48 -98z m77 -9 c7 -21 4 -23 -28 -23 -20 0 -36 1 -36 3 0 2 8 26 17 53
l17 49 12 -30 c6 -17 15 -40 18 -52z"/>
<path d="M10150 5600 c0 -5 14 -10 30 -10 l30 0 0 -95 c0 -57 4 -95 10 -95 6
0 10 38 10 95 l0 95 30 0 c17 0 30 5 30 10 0 6 -30 10 -70 10 -40 0 -70 -4
-70 -10z"/>
<path d="M5235 5575 c-5 -11 -13 -24 -19 -28 -8 -6 -7 -10 2 -14 7 -3 12 -23
12 -49 0 -55 14 -84 40 -84 26 0 26 16 0 23 -17 4 -20 14 -20 56 0 44 3 51 20
51 11 0 20 5 20 10 0 6 -9 10 -19 10 -12 0 -21 8 -24 23 -3 21 -4 21 -12 2z"/>
<path d="M6745 5573 c-4 -13 -14 -23 -21 -23 -8 0 -14 -4 -14 -10 0 -5 7 -10
15 -10 11 0 15 -13 15 -54 0 -59 17 -84 47 -70 16 7 15 8 -4 11 -21 4 -23 10
-23 59 0 47 2 54 20 54 11 0 20 5 20 10 0 6 -9 10 -19 10 -12 0 -21 8 -24 23
l-4 22 -8 -22z"/>
<path d="M8025 5573 c-4 -13 -14 -23 -21 -23 -8 0 -14 -4 -14 -10 0 -5 7 -10
15 -10 11 0 15 -13 15 -54 0 -59 17 -84 47 -70 16 7 15 8 -4 11 -21 4 -23 10
-23 59 0 47 2 54 20 54 11 0 20 5 20 10 0 6 -9 10 -19 10 -12 0 -21 8 -24 23
l-4 22 -8 -22z"/>
<path d="M9385 5573 c-4 -13 -14 -23 -21 -23 -8 0 -14 -4 -14 -10 0 -5 7 -10
15 -10 11 0 15 -13 15 -54 0 -59 17 -84 47 -70 16 7 15 8 -4 11 -21 4 -23 10
-23 59 0 47 2 54 20 54 11 0 20 5 20 10 0 6 -9 10 -19 10 -12 0 -21 8 -24 23
l-4 22 -8 -22z"/>
<path d="M13655 5575 c-5 -11 -13 -24 -19 -28 -8 -6 -7 -10 2 -14 7 -3 12 -23
12 -49 0 -55 14 -84 40 -84 26 0 26 16 0 23 -17 4 -20 14 -20 56 0 44 3 51 20
51 11 0 20 5 20 10 0 6 -9 10 -19 10 -12 0 -21 8 -24 23 -3 21 -4 21 -12 2z"/>
<path d="M14585 5573 c-4 -13 -14 -23 -21 -23 -8 0 -14 -4 -14 -10 0 -5 7 -10
15 -10 12 0 15 -13 15 -59 0 -44 4 -60 16 -65 23 -9 34 -7 34 4 0 6 -7 10 -15
10 -12 0 -15 13 -15 55 0 42 3 55 15 55 8 0 15 5 15 10 0 6 -6 10 -14 10 -8 0
-17 10 -19 23 l-4 22 -8 -22z"/>
<path d="M3800 5478 c16 -40 33 -74 38 -76 5 -1 23 31 40 73 17 42 26 75 20
73 -7 -3 -21 -30 -32 -61 -12 -31 -24 -57 -27 -57 -3 0 -14 27 -24 60 -10 33
-24 60 -31 60 -8 0 -3 -23 16 -72z"/>
<path d="M3953 5543 c-25 -10 -12 -20 24 -19 27 1 38 -4 41 -15 2 -12 -9 -19
-43 -28 -41 -10 -45 -14 -45 -41 0 -23 5 -31 24 -36 13 -3 34 -1 45 6 14 7 21
7 21 0 0 -5 5 -10 10 -10 17 0 12 116 -6 134 -15 16 -46 20 -71 9z m67 -86 c0
-20 -21 -37 -46 -37 -25 0 -38 22 -21 39 15 15 67 14 67 -2z"/>
<path d="M4090 5475 c0 -43 4 -75 10 -75 6 0 10 24 10 53 0 57 12 77 46 77 27
0 34 -17 34 -81 0 -27 5 -49 10 -49 17 0 12 116 -6 134 -20 21 -43 20 -66 -1
-17 -15 -18 -15 -18 0 0 10 -4 17 -10 17 -6 0 -10 -32 -10 -75z"/>
<path d="M4274 5525 c-51 -51 -4 -139 63 -119 l28 8 -35 4 c-82 8 -80 112 1
112 18 0 28 4 24 10 -11 18 -56 10 -81 -15z"/>
<path d="M4415 5525 c-63 -62 10 -163 81 -110 17 13 16 14 -18 8 -40 -6 -68 8
-68 33 0 10 15 14 56 14 47 0 55 3 50 16 -3 9 -6 19 -6 24 0 16 -31 40 -51 40
-11 0 -31 -11 -44 -25z m75 -15 c10 -19 8 -20 -35 -20 -46 0 -54 7 -33 28 19
19 56 14 68 -8z"/>
<path d="M4822 5475 c1 -76 1 -77 7 -25 8 67 15 80 46 80 28 0 35 -16 35 -81
0 -68 18 -62 22 7 3 60 20 83 52 71 12 -5 16 -20 16 -67 0 -33 4 -60 10 -60 6
0 10 28 10 65 0 60 -2 66 -25 77 -19 9 -29 8 -48 -5 -22 -14 -26 -14 -40 0
-14 14 -21 15 -43 4 -22 -10 -29 -9 -35 1 -5 7 -8 -22 -7 -67z"/>
<path d="M5093 5543 c-23 -9 -13 -18 19 -18 44 0 52 -32 11 -40 -42 -9 -58
-20 -61 -43 -4 -29 32 -48 64 -33 15 6 24 7 24 1 0 -6 5 -10 10 -10 14 0 13
123 -2 138 -12 12 -43 15 -65 5z m55 -95 c-4 -29 -55 -39 -65 -13 -7 20 12 35
45 35 19 0 23 -5 20 -22z"/>
<path d="M5586 5534 c-25 -25 -19 -42 25 -64 48 -25 46 -45 -4 -45 -42 0 -45
-18 -4 -23 29 -4 70 30 61 51 -3 8 -21 21 -40 31 -42 20 -40 40 4 44 18 2 30
8 27 13 -10 14 -52 11 -69 -7z"/>
<path d="M5740 5543 c-66 -24 -45 -143 25 -143 33 0 75 42 75 75 0 48 -54 85
-100 68z m72 -38 c17 -38 0 -79 -35 -83 -37 -5 -57 14 -57 52 0 39 15 56 52
56 21 0 32 -7 40 -25z"/>
<path d="M5960 5478 c16 -40 33 -74 38 -76 5 -1 23 31 40 73 17 42 26 75 20
73 -7 -3 -21 -30 -32 -61 -12 -31 -24 -57 -27 -57 -3 0 -14 27 -24 60 -10 33
-24 60 -31 60 -8 0 -3 -23 16 -72z"/>
<path d="M6109 5529 c-30 -30 -23 -98 12 -118 15 -9 36 -11 52 -7 37 9 34 24
-3 18 -32 -5 -60 11 -60 34 0 10 14 14 50 14 46 0 50 2 50 24 0 27 -33 56 -62
56 -10 0 -27 -9 -39 -21z m79 -21 c3 -15 -4 -18 -37 -18 -43 0 -50 7 -29 28
18 18 62 11 66 -10z"/>
<path d="M6261 5475 c2 -80 2 -80 9 -24 8 67 15 79 41 79 10 0 19 5 19 10 0
14 -24 12 -38 -2 -10 -10 -15 -10 -22 2 -7 10 -9 -11 -9 -65z"/>
<path d="M6444 5478 c12 -39 26 -73 32 -75 6 -2 17 18 24 44 19 70 27 72 45 9
9 -31 20 -56 25 -56 8 0 50 119 50 142 0 26 -18 -8 -30 -56 -7 -31 -17 -53
-21 -50 -4 2 -13 29 -20 59 -7 31 -17 54 -23 52 -6 -2 -17 -27 -26 -55 -8 -28
-18 -53 -21 -56 -3 -4 -13 21 -22 54 -10 33 -21 60 -26 60 -5 0 1 -32 13 -72z"/>
<path d="M6660 5475 c0 -43 4 -75 10 -75 6 0 10 32 10 75 0 43 -4 75 -10 75
-6 0 -10 -32 -10 -75z"/>
<path d="M7180 5475 c0 -88 18 -102 22 -17 3 48 7 59 26 67 12 5 22 13 22 17
0 13 -18 9 -34 -8 -15 -14 -16 -14 -16 0 0 9 -4 16 -10 16 -6 0 -10 -32 -10
-75z"/>
<path d="M7295 5525 c-30 -30 -32 -64 -4 -99 23 -29 55 -33 85 -11 17 13 16
14 -20 8 -31 -5 -42 -2 -52 12 -22 30 -17 35 42 35 l56 0 -6 28 c-14 54 -61
68 -101 27z m73 -7 c21 -21 13 -28 -33 -28 -43 0 -45 1 -35 20 12 22 49 27 68
8z"/>
<path d="M7455 5525 c-63 -62 10 -163 81 -110 17 13 16 14 -18 8 -40 -6 -68 8
-68 33 0 10 15 14 56 14 47 0 55 3 50 16 -3 9 -6 19 -6 24 0 16 -31 40 -51 40
-11 0 -31 -11 -44 -25z m75 -15 c10 -19 8 -20 -35 -20 -46 0 -54 7 -33 28 19
19 56 14 68 -8z"/>
<path d="M7869 5529 c-30 -30 -23 -98 12 -118 15 -9 36 -11 52 -7 39 9 33 23
-9 22 -27 -1 -40 5 -51 22 -15 22 -15 22 41 22 49 0 56 2 56 20 0 11 -9 29
-20 40 -26 26 -55 25 -81 -1z m79 -21 c3 -15 -4 -18 -37 -18 -43 0 -50 7 -29
28 18 18 62 11 66 -10z"/>
<path d="M8133 5543 c-26 -10 -12 -22 18 -16 21 4 34 1 40 -8 14 -23 11 -26
-35 -38 -44 -11 -60 -29 -50 -56 9 -22 51 -30 71 -14 13 11 17 11 20 2 3 -7 9
-13 15 -13 16 0 5 130 -13 141 -15 9 -46 11 -66 2z m67 -86 c0 -20 -21 -37
-46 -37 -29 0 -39 16 -24 35 15 19 70 20 70 2z"/>
<path d="M8270 5475 c0 -43 4 -75 10 -75 6 0 10 32 10 75 0 43 -4 75 -10 75
-6 0 -10 -32 -10 -75z"/>
<path d="M8425 5525 c-30 -30 -32 -64 -4 -99 23 -29 55 -33 85 -11 17 13 16
14 -20 8 -31 -5 -42 -2 -52 12 -22 30 -17 35 42 35 l56 0 -6 28 c-14 54 -61
68 -101 27z m73 -7 c21 -21 13 -28 -33 -28 -43 0 -45 1 -35 20 12 22 49 27 68
8z"/>
<path d="M8836 5537 c-26 -19 -16 -50 22 -66 46 -21 43 -49 -5 -53 -31 -3 -34
-6 -19 -12 30 -14 71 5 71 34 0 19 -8 29 -33 39 -42 19 -39 45 6 49 18 2 30 8
27 13 -9 13 -48 11 -69 -4z"/>
<path d="M8970 5530 c-29 -29 -27 -94 2 -114 51 -36 112 -4 112 59 0 65 -70
99 -114 55z m84 -16 c9 -8 16 -26 16 -39 0 -56 -71 -73 -99 -24 -13 24 -13 29
2 53 20 30 57 35 81 10z"/>
<path d="M9200 5496 c0 -38 6 -61 19 -77 17 -22 22 -23 50 -12 17 6 31 7 31 2
0 -5 5 -9 10 -9 6 0 10 32 10 75 0 87 -18 102 -22 19 -3 -64 -23 -88 -55 -68
-13 8 -19 27 -21 68 -4 72 -22 74 -22 2z"/>
<path d="M9483 5475 c0 -44 2 -61 4 -37 2 23 2 59 0 80 -2 20 -4 1 -4 -43z"/>
<path d="M9580 5543 c-66 -24 -45 -143 25 -143 33 0 75 42 75 75 0 48 -54 85
-100 68z m72 -38 c17 -38 0 -79 -35 -83 -37 -5 -57 14 -57 52 0 39 15 56 52
56 21 0 32 -7 40 -25z"/>
<path d="M9731 5475 c2 -80 2 -80 9 -24 9 69 15 79 45 79 31 0 38 -13 46 -80
l6 -55 2 66 c1 81 -13 100 -62 81 -24 -9 -33 -9 -39 1 -4 6 -7 -24 -7 -68z"/>
<path d="M9900 5532 c-28 -22 -19 -44 26 -66 44 -20 39 -41 -9 -41 -44 0 -44
-19 -1 -23 34 -3 68 26 59 50 -3 8 -22 22 -41 32 -42 20 -40 40 4 44 18 2 30
8 27 13 -10 15 -41 11 -65 -9z"/>
<path d="M10290 5543 c0 -4 12 -38 27 -75 22 -57 24 -72 15 -93 -6 -14 -18
-25 -27 -25 -8 0 -15 -4 -15 -10 0 -16 26 -12 43 8 12 13 87 185 87 199 0 2
-4 3 -9 3 -6 0 -20 -27 -32 -60 -12 -34 -25 -57 -29 -53 -4 4 -15 32 -26 61
-10 28 -22 52 -26 52 -4 0 -8 -3 -8 -7z"/>
<path d="M10462 5440 c1 -63 3 -94 5 -67 4 52 5 52 32 35 27 -16 68 3 82 39
24 63 -22 119 -78 94 -21 -10 -28 -9 -34 1 -5 7 -8 -38 -7 -102z m99 66 c16
-35 4 -74 -26 -82 -35 -9 -53 1 -61 31 -15 59 63 105 87 51z"/>
<path d="M10645 5525 c-63 -62 10 -163 81 -110 17 13 16 14 -18 8 -40 -6 -68
8 -68 33 0 10 15 14 56 14 47 0 55 3 50 16 -3 9 -6 19 -6 24 0 16 -31 40 -51
40 -11 0 -31 -11 -44 -25z m75 -15 c10 -19 8 -20 -35 -20 -46 0 -54 7 -33 28
19 19 56 14 68 -8z"/>
<path d="M10850 5547 c0 -2 11 -32 26 -66 29 -74 28 -112 -3 -126 -26 -11 -30
-25 -8 -25 24 0 46 32 81 125 38 96 37 95 26 95 -4 0 -16 -24 -26 -52 -11 -29
-22 -57 -26 -61 -4 -5 -17 19 -30 52 -12 34 -26 61 -31 61 -5 0 -9 -1 -9 -3z"/>
<path d="M11030 5530 c-29 -29 -27 -94 2 -114 51 -36 112 -4 112 59 0 65 -70
99 -114 55z m84 -16 c9 -8 16 -26 16 -39 0 -56 -71 -73 -99 -24 -13 24 -13 29
2 53 20 30 57 35 81 10z"/>
<path d="M11190 5485 c0 -61 2 -66 26 -77 20 -9 30 -9 47 1 15 10 22 11 25 2
2 -6 8 -11 13 -11 5 0 9 34 9 75 0 43 -4 75 -10 75 -5 0 -10 -22 -10 -48 0
-58 -17 -85 -51 -80 -22 3 -24 8 -27 66 -4 82 -22 80 -22 -3z"/>
<path d="M11360 5475 c0 -88 18 -102 22 -17 3 48 7 59 26 67 12 5 22 13 22 17
0 13 -18 9 -34 -8 -15 -14 -16 -14 -16 0 0 9 -4 16 -10 16 -6 0 -10 -32 -10
-75z"/>
<path d="M11550 5440 c0 -67 4 -110 10 -110 6 0 10 20 10 45 0 44 0 44 25 33
19 -9 29 -8 49 6 70 46 26 162 -49 128 -15 -7 -25 -8 -25 -2 0 6 -4 10 -10 10
-6 0 -10 -43 -10 -110z m98 78 c28 -28 6 -98 -31 -98 -31 0 -47 18 -47 55 0
36 15 55 45 55 12 0 26 -5 33 -12z"/>
<path d="M11720 5475 c0 -43 4 -75 10 -75 6 0 10 21 10 46 0 55 14 84 40 84
11 0 20 5 20 10 0 15 -21 12 -42 -7 -17 -15 -18 -15 -18 0 0 10 -4 17 -10 17
-6 0 -10 -32 -10 -75z"/>
<path d="M11860 5543 c-66 -24 -45 -143 25 -143 33 0 75 42 75 75 0 48 -54 85
-100 68z m72 -38 c17 -38 0 -79 -35 -83 -37 -5 -57 14 -57 52 0 39 15 56 52
56 21 0 32 -7 40 -25z"/>
<path d="M12265 5525 c-30 -30 -32 -64 -4 -99 23 -29 55 -33 85 -11 17 13 16
14 -20 8 -31 -5 -42 -2 -52 12 -22 30 -17 35 42 35 l56 0 -6 28 c-14 54 -61
68 -101 27z m73 -7 c21 -21 13 -28 -33 -28 -43 0 -45 1 -35 20 12 22 49 27 68
8z"/>
<path d="M12410 5475 c0 -87 18 -102 22 -19 3 60 20 83 52 71 12 -5 16 -20 16
-67 0 -33 4 -60 10 -60 6 0 10 21 10 46 0 57 14 84 44 84 29 0 36 -16 36 -81
0 -27 5 -49 10 -49 11 0 13 81 4 118 -8 29 -50 40 -71 19 -14 -14 -18 -14 -40
0 -19 13 -29 14 -48 5 -15 -7 -25 -8 -25 -2 0 6 -4 10 -10 10 -6 0 -10 -32
-10 -75z"/>
<path d="M12764 5525 c-33 -33 -30 -80 8 -108 48 -35 108 -3 108 59 0 68 -68
97 -116 49z m84 -7 c17 -17 15 -73 -2 -87 -8 -7 -27 -11 -43 -9 -59 7 -55 108
5 108 15 0 33 -5 40 -12z"/>
<path d="M12931 5475 c2 -80 2 -80 9 -24 8 67 15 79 41 79 10 0 19 5 19 10 0
14 -24 12 -38 -2 -10 -10 -15 -10 -22 2 -7 10 -9 -11 -9 -65z"/>
<path d="M13110 5491 c0 -41 5 -65 16 -75 19 -19 45 -21 63 -3 11 10 14 10 18
0 12 -34 23 -5 23 62 0 43 -4 75 -10 75 -5 0 -10 -24 -10 -54 0 -59 -14 -80
-52 -74 -21 3 -23 9 -26 66 -4 79 -22 82 -22 3z"/>
<path d="M13290 5532 c-28 -22 -19 -44 26 -66 44 -20 39 -41 -9 -41 -44 0 -44
-19 -1 -23 34 -3 68 26 59 50 -3 8 -22 22 -41 32 -42 20 -40 40 4 44 18 2 30
8 27 13 -10 15 -41 11 -65 -9z"/>
<path d="M13419 5529 c-30 -30 -23 -98 12 -118 15 -9 36 -11 52 -7 37 9 34 24
-3 18 -32 -5 -60 11 -60 34 0 10 14 14 50 14 46 0 50 2 50 24 0 27 -33 56 -62
56 -10 0 -27 -9 -39 -21z m79 -21 c3 -15 -4 -18 -37 -18 -43 0 -50 7 -29 28
18 18 62 11 66 -10z"/>
<path d="M13935 5525 c-63 -62 10 -163 81 -110 17 13 16 14 -18 8 -40 -6 -68
8 -68 33 0 10 15 14 56 14 47 0 55 3 50 16 -3 9 -6 19 -6 24 0 16 -31 40 -51
40 -11 0 -31 -11 -44 -25z m75 -15 c10 -19 8 -20 -35 -20 -46 0 -54 7 -33 28
19 19 56 14 68 -8z"/>
<path d="M14160 5475 c0 -91 18 -101 22 -12 3 62 3 62 33 62 30 0 30 0 33 -62
4 -76 22 -84 22 -10 0 55 12 77 41 77 25 0 33 -16 40 -80 7 -54 7 -54 5 14 -1
84 -18 102 -66 74 -17 -9 -30 -13 -30 -8 0 15 -38 22 -60 10 -13 -7 -20 -7
-20 0 0 5 -4 10 -10 10 -6 0 -10 -32 -10 -75z"/>
<path d="M14433 5543 c-25 -10 -12 -20 24 -19 27 1 38 -4 41 -15 2 -12 -9 -19
-43 -28 -41 -10 -45 -14 -45 -41 0 -23 5 -31 24 -36 13 -3 34 -1 45 6 14 7 21
7 21 0 0 -5 5 -10 10 -10 17 0 12 116 -6 134 -15 16 -46 20 -71 9z m67 -86 c0
-20 -21 -37 -46 -37 -25 0 -38 22 -21 39 15 15 67 14 67 -2z"/>
<path d="M10016 5421 c-4 -5 -2 -12 3 -15 5 -4 12 -2 15 3 4 5 2 12 -3 15 -5
4 -12 2 -15 -3z"/>
<path d="M8040 5095 c0 -70 4 -115 10 -115 6 0 10 17 10 37 l0 37 40 -39 c49
-48 63 -41 19 9 l-32 37 33 35 c21 21 28 34 19 34 -7 0 -28 -17 -46 -37 l-32
-38 -1 78 c0 44 -4 77 -10 77 -6 0 -10 -45 -10 -115z"/>
<path d="M8490 5095 c0 -70 4 -115 10 -115 6 0 10 5 10 10 0 7 6 7 19 0 48
-25 91 7 91 68 0 62 -42 89 -88 56 -22 -15 -22 -15 -22 40 0 31 -4 56 -10 56
-6 0 -10 -45 -10 -115z m98 3 c7 -7 12 -26 12 -43 0 -36 -15 -55 -45 -55 -41
0 -59 46 -35 91 12 21 50 25 68 7z"/>
<path d="M9210 5160 c0 -50 -6 -60 -27 -39 -17 17 -60 2 -79 -26 -23 -35 -11
-92 22 -107 18 -8 31 -8 51 1 19 9 29 9 31 2 2 -6 8 -11 13 -11 5 0 9 52 9
115 0 70 -4 115 -10 115 -5 0 -10 -22 -10 -50z m-10 -69 c15 -30 12 -56 -9
-75 -45 -40 -99 11 -73 69 15 32 66 35 82 6z"/>
<path d="M9360 5095 c0 -70 4 -115 10 -115 6 0 10 5 10 10 0 7 6 7 19 0 48
-25 91 7 91 69 0 60 -52 91 -92 54 -17 -15 -18 -14 -18 40 0 32 -4 57 -10 57
-6 0 -10 -45 -10 -115z m98 3 c7 -7 12 -26 12 -43 0 -36 -15 -55 -45 -55 -30
0 -45 19 -45 55 0 36 15 55 45 55 12 0 26 -5 33 -12z"/>
<path d="M9690 5095 c0 -70 4 -115 10 -115 6 0 10 45 10 115 0 70 -4 115 -10
115 -6 0 -10 -45 -10 -115z"/>
<path d="M8205 5105 c-63 -62 10 -163 81 -110 17 13 16 14 -18 8 -40 -6 -68 8
-68 33 0 10 15 14 56 14 47 0 55 3 50 16 -3 9 -6 19 -6 24 0 16 -31 40 -51 40
-11 0 -31 -11 -44 -25z m75 -15 c10 -19 8 -20 -35 -20 -46 0 -54 7 -33 28 19
19 56 14 68 -8z"/>
<path d="M8330 5123 c0 -4 12 -38 27 -75 22 -57 24 -72 15 -93 -6 -14 -18 -25
-27 -25 -8 0 -15 -4 -15 -10 0 -16 26 -12 43 8 12 13 87 185 87 199 0 2 -4 3
-9 3 -6 0 -20 -27 -32 -60 -12 -34 -25 -57 -29 -53 -4 4 -15 32 -26 61 -10 28
-22 52 -26 52 -4 0 -8 -3 -8 -7z"/>
<path d="M8700 5123 c-66 -24 -45 -143 25 -143 33 0 75 42 75 75 0 48 -54 85
-100 68z m72 -38 c17 -38 0 -79 -35 -83 -37 -5 -57 14 -57 52 0 39 15 56 52
56 21 0 32 -7 40 -25z"/>
<path d="M8863 5123 c-26 -10 -12 -22 18 -16 21 4 34 1 40 -8 14 -23 11 -26
-35 -38 -44 -11 -60 -29 -50 -56 9 -22 51 -30 71 -14 13 11 17 11 20 2 3 -7 9
-13 15 -13 16 0 5 130 -13 141 -15 9 -46 11 -66 2z m67 -86 c0 -20 -21 -37
-46 -37 -29 0 -39 16 -24 35 15 19 70 20 70 2z"/>
<path d="M9000 5055 c0 -91 17 -100 22 -12 4 67 1 87 -13 87 -5 0 -9 -34 -9
-75z"/>
<path d="M9035 5120 c-3 -5 3 -10 14 -10 12 0 21 5 21 10 0 6 -6 10 -14 10 -8
0 -18 -4 -21 -10z"/>
<path d="M9549 5109 c-30 -30 -23 -98 12 -118 15 -9 36 -11 52 -7 37 9 34 24
-3 18 -32 -5 -60 11 -60 34 0 10 14 14 50 14 46 0 50 2 50 24 0 27 -33 56 -62
56 -10 0 -27 -9 -39 -21z m79 -21 c3 -15 -4 -18 -37 -18 -43 0 -50 7 -29 28
18 18 62 11 66 -10z"/>
<path d="M9780 5110 c-29 -29 -27 -94 2 -114 51 -36 112 -4 112 59 0 65 -70
99 -114 55z m84 -16 c9 -8 16 -26 16 -39 0 -56 -71 -73 -99 -24 -13 24 -13 29
2 53 20 30 57 35 81 10z"/>
<path d="M9944 5058 c12 -39 26 -73 32 -75 6 -2 17 18 24 44 19 70 27 72 45 9
9 -31 20 -56 25 -56 8 0 50 119 50 142 0 26 -18 -8 -30 -56 -7 -31 -17 -53
-21 -50 -4 2 -13 29 -20 59 -7 31 -17 54 -23 52 -6 -2 -17 -27 -26 -55 -8 -28
-18 -53 -21 -56 -3 -4 -13 21 -22 54 -10 33 -21 60 -26 60 -5 0 1 -32 13 -72z"/>
<path d="M10150 4995 c0 -9 5 -15 11 -13 6 2 11 8 11 13 0 5 -5 11 -11 13 -6
2 -11 -4 -11 -13z"/>
<path d="M4002 3908 c-16 -16 -16 -210 0 -226 7 -7 43 -12 93 -12 50 0 86 5
93 12 16 16 16 210 0 226 -16 16 -170 16 -186 0z m168 -113 l0 -105 -75 0 -75
0 0 105 0 105 75 0 75 0 0 -105z"/>
<path d="M4040 3860 c0 -5 25 -10 55 -10 30 0 55 5 55 10 0 6 -25 10 -55 10
-30 0 -55 -4 -55 -10z"/>
<path d="M4040 3820 c0 -5 5 -10 10 -10 6 0 10 5 10 10 0 6 -4 10 -10 10 -5 0
-10 -4 -10 -10z"/>
<path d="M4085 3820 c-3 -5 1 -10 10 -10 9 0 13 5 10 10 -3 6 -8 10 -10 10 -2
0 -7 -4 -10 -10z"/>
<path d="M4130 3820 c0 -5 5 -10 10 -10 6 0 10 5 10 10 0 6 -4 10 -10 10 -5 0
-10 -4 -10 -10z"/>
<path d="M4040 3770 c0 -5 5 -10 10 -10 6 0 10 5 10 10 0 6 -4 10 -10 10 -5 0
-10 -4 -10 -10z"/>
<path d="M4085 3770 c4 -6 11 -8 16 -5 14 9 11 15 -7 15 -8 0 -12 -5 -9 -10z"/>
<path d="M4130 3750 c0 -16 5 -30 10 -30 6 0 10 14 10 30 0 17 -4 30 -10 30
-5 0 -10 -13 -10 -30z"/>
<path d="M4040 3730 c0 -5 5 -10 10 -10 6 0 10 5 10 10 0 6 -4 10 -10 10 -5 0
-10 -4 -10 -10z"/>
<path d="M4085 3730 c-3 -5 1 -10 10 -10 9 0 13 5 10 10 -3 6 -8 10 -10 10 -2
0 -7 -4 -10 -10z"/>
<path d="M6312 3898 c-8 -8 -12 -46 -12 -103 0 -57 4 -95 12 -103 8 -8 46 -12
103 -12 57 0 95 4 103 12 8 8 12 46 12 103 0 57 -4 95 -12 103 -16 16 -190 16
-206 0z m193 -103 l0 -90 -90 0 -90 0 -3 79 c-2 44 -1 85 2 93 4 11 26 13 93
11 l88 -3 0 -90z"/>
<path d="M6397 3831 c-31 -33 -33 -41 -12 -41 8 0 15 -7 15 -15 0 -9 -7 -18
-15 -21 -23 -9 -18 -26 8 -22 16 2 23 11 25 31 2 15 10 27 17 27 25 0 27 20 3
30 l-23 9 23 7 c26 8 30 24 4 24 -9 0 -29 -13 -45 -29z"/>
<path d="M8403 3903 c-13 -5 -113 -174 -113 -191 0 -22 40 -32 125 -32 85 0
125 10 125 32 0 17 -99 186 -113 191 -6 2 -17 2 -24 0z m69 -105 c25 -46 44
-86 42 -90 -7 -10 -191 -10 -198 0 -6 10 86 172 99 172 6 0 31 -37 57 -82z"/>
<path d="M12898 3904 c-13 -13 -9 -199 4 -212 15 -15 204 -17 213 -2 4 6 -28
10 -88 10 -66 0 -98 4 -105 13 -6 7 -13 55 -14 106 -2 51 -6 89 -10 85z"/>
<path d="M10890 3879 c0 -6 11 -25 25 -43 31 -41 31 -41 -1 -83 -39 -51 -28
-65 53 -61 66 3 68 4 71 31 2 15 -1 27 -7 27 -6 0 -11 -9 -11 -20 0 -17 -7
-20 -50 -20 -27 0 -50 3 -50 6 0 3 8 18 18 32 10 15 22 32 25 38 3 6 -5 27
-19 47 l-25 37 51 0 c38 0 50 -4 50 -15 0 -8 5 -15 10 -15 6 0 10 11 10 25 0
24 -2 25 -75 25 -46 0 -75 -4 -75 -11z"/>
<path d="M4530 3790 c0 -73 3 -90 15 -90 12 0 15 17 15 90 0 73 -3 90 -15 90
-12 0 -15 -17 -15 -90z"/>
<path d="M4870 3791 l0 -89 45 2 c51 2 65 14 65 62 0 41 -21 58 -60 49 -29 -6
-30 -5 -30 29 0 20 -4 36 -10 36 -6 0 -10 -36 -10 -89z m80 -6 c16 -19 -2 -65
-24 -65 -23 0 -39 36 -26 60 13 24 33 26 50 5z"/>
<path d="M6960 3790 c0 -53 4 -90 10 -90 6 0 10 37 10 90 0 53 -4 90 -10 90
-6 0 -10 -37 -10 -90z"/>
<path d="M7260 3790 c0 -53 4 -90 10 -90 6 0 10 37 10 90 0 53 -4 90 -10 90
-6 0 -10 -37 -10 -90z"/>
<path d="M13803 3790 c0 -72 1 -84 6 -47 4 26 4 68 0 95 -5 36 -6 24 -6 -48z"/>
<path d="M4409 3843 c-57 -148 -56 -143 -35 -143 8 0 17 11 20 25 5 20 12 25
40 25 28 0 35 -5 40 -25 4 -14 13 -25 21 -25 19 0 20 -8 -14 86 -32 87 -54
104 -72 57z m29 -71 c-27 -5 -30 1 -17 34 l11 29 13 -30 c12 -27 12 -30 -7
-33z"/>
<path d="M6724 3858 c-47 -22 -57 -95 -19 -133 25 -26 78 -34 90 -15 4 6 -8
10 -28 10 -41 0 -67 25 -67 67 0 38 27 63 68 63 18 0 32 5 32 10 0 13 -49 12
-76 -2z"/>
<path d="M8680 3860 c0 -5 9 -10 20 -10 18 0 20 -7 20 -75 0 -43 4 -75 10 -75
6 0 10 32 10 75 0 73 1 75 25 75 14 0 25 5 25 10 0 6 -25 10 -55 10 -30 0 -55
-4 -55 -10z"/>
<path d="M8880 3860 c0 -5 5 -10 10 -10 6 0 10 5 10 10 0 6 -4 10 -10 10 -5 0
-10 -4 -10 -10z"/>
<path d="M11246 3851 c-22 -24 -9 -54 34 -76 18 -9 30 -23 30 -35 0 -17 -7
-20 -41 -20 -24 0 -38 -4 -34 -10 8 -13 51 -13 76 0 32 18 24 54 -18 81 -50
32 -50 53 0 57 20 2 35 7 32 13 -11 16 -61 10 -79 -10z"/>
<path d="M11640 3860 c0 -5 5 -10 10 -10 6 0 10 5 10 10 0 6 -4 10 -10 10 -5
0 -10 -4 -10 -10z"/>
<path d="M11880 3860 c0 -5 5 -10 10 -10 6 0 10 5 10 10 0 6 -4 10 -10 10 -5
0 -10 -4 -10 -10z"/>
<path d="M13305 3846 c-36 -36 -35 -97 1 -125 27 -21 58 -26 88 -15 11 4 16
19 16 45 0 35 -3 39 -25 39 -14 0 -25 -4 -25 -10 0 -5 7 -10 15 -10 9 0 15 -9
15 -25 0 -21 -5 -25 -28 -25 -52 0 -74 34 -59 92 8 30 40 44 83 35 15 -3 23 0
21 7 -2 6 -20 12 -40 14 -28 2 -42 -3 -62 -22z"/>
<path d="M13930 3860 c0 -5 5 -10 10 -10 6 0 10 5 10 10 0 6 -4 10 -10 10 -5
0 -10 -4 -10 -10z"/>
<path d="M9835 3843 c-4 -13 -12 -23 -18 -23 -7 0 -7 -4 1 -12 7 -7 12 -25 12
-41 0 -15 5 -37 10 -48 11 -20 40 -27 40 -9 0 6 -7 10 -15 10 -11 0 -15 11
-15 40 0 29 4 40 15 40 8 0 15 5 15 10 0 6 -6 10 -14 10 -8 0 -17 10 -19 23
l-4 22 -8 -22z"/>
<path d="M11365 3843 c-4 -13 -12 -23 -18 -23 -7 0 -7 -4 1 -12 7 -7 12 -25
12 -41 0 -15 5 -37 10 -48 11 -20 40 -27 40 -9 0 6 -7 10 -15 10 -11 0 -15 11
-15 40 0 29 4 40 15 40 8 0 15 5 15 10 0 6 -6 10 -14 10 -8 0 -17 10 -19 23
l-4 22 -8 -22z"/>
<path d="M11571 3843 c0 -12 -7 -24 -13 -27 -10 -5 -10 -7 0 -12 7 -3 12 -24
12 -50 0 -31 5 -46 15 -51 23 -8 33 7 12 18 -22 13 -24 79 -2 79 8 0 15 5 15
10 0 6 -6 10 -14 10 -8 0 -17 10 -19 23 -4 22 -4 22 -6 0z"/>
<path d="M11815 3845 c-5 -11 -13 -23 -19 -27 -8 -6 -7 -10 1 -16 6 -4 13 -28
15 -52 2 -38 7 -46 26 -48 12 -2 22 1 22 7 0 6 -7 11 -15 11 -22 0 -20 69 3
86 16 12 16 13 0 14 -9 0 -18 10 -21 23 -3 21 -4 21 -12 2z"/>
<path d="M13050 3815 l-24 -25 -21 20 c-19 18 -23 18 -43 4 -22 -15 -30 -44
-13 -44 5 0 14 7 21 15 12 14 15 13 35 -5 l22 -21 32 26 c29 25 42 55 23 55
-5 0 -19 -11 -32 -25z"/>
<path d="M5380 3824 c0 -6 13 -22 28 -37 l28 -27 29 30 c16 16 26 32 23 35 -2
3 -15 -6 -28 -20 l-24 -25 -28 27 c-15 15 -28 22 -28 17z"/>
<path d="M4606 3801 c-44 -49 16 -135 62 -89 17 17 16 -13 -1 -37 -10 -12 -22
-16 -40 -13 -19 4 -27 1 -27 -8 0 -18 60 -18 84 -1 15 11 20 31 24 89 l4 75
-45 0 c-31 1 -51 -4 -61 -16z m68 -23 c14 -23 -3 -53 -30 -53 -20 0 -31 33
-20 61 7 19 35 14 50 -8z"/>
<path d="M4759 3810 c-26 -15 -32 -58 -14 -87 13 -19 23 -23 47 -21 17 2 33 8
35 14 2 7 -5 10 -20 7 -14 -3 -29 2 -36 11 -12 14 -9 16 28 16 36 0 41 3 41
23 0 42 -41 60 -81 37z m55 -25 c4 -11 -2 -15 -26 -15 -26 0 -29 2 -18 15 7 8
18 15 25 15 7 0 15 -7 19 -15z"/>
<path d="M5010 3759 c0 -46 3 -59 15 -59 10 0 15 10 15 34 0 44 9 66 26 66 31
0 11 16 -21 17 l-35 1 0 -59z"/>
<path d="M5113 3813 c-25 -9 -13 -22 16 -17 16 4 32 1 35 -5 4 -7 -1 -11 -12
-11 -11 0 -30 -9 -43 -19 -35 -29 -16 -56 40 -57 l41 -1 0 53 c0 38 -4 53 -16
58 -18 7 -43 7 -61 -1z m57 -62 c0 -5 -7 -14 -15 -21 -18 -15 -42 1 -31 19 8
13 46 15 46 2z"/>
<path d="M6847 3813 c-14 -14 -6 -19 23 -15 40 6 39 -14 -1 -23 -60 -13 -48
-70 15 -70 l36 -1 0 52 c0 38 -4 53 -16 58 -21 8 -49 8 -57 -1z m53 -73 c-12
-22 -50 -27 -50 -7 0 20 10 27 37 27 21 0 22 -3 13 -20z"/>
<path d="M7030 3800 c-25 -25 -26 -62 -2 -83 21 -19 57 -22 67 -7 4 6 -7 10
-25 10 -34 0 -45 17 -36 55 5 20 13 25 36 25 17 0 30 5 30 10 0 18 -49 11 -70
-10z"/>
<path d="M7131 3768 c-1 -62 6 -68 67 -65 20 1 22 6 21 62 -1 33 -4 47 -6 30
-8 -66 -13 -75 -38 -75 -25 0 -30 9 -38 75 -2 17 -5 4 -6 -27z"/>
<path d="M7320 3771 c0 -57 12 -70 63 -68 l37 1 0 58 c0 70 -18 78 -22 11 -3
-44 -5 -48 -28 -48 -23 0 -25 4 -28 48 -4 62 -22 61 -22 -2z"/>
<path d="M7462 3808 c-20 -20 -14 -37 18 -53 39 -20 38 -35 -1 -35 -17 0 -28
-4 -24 -10 9 -14 48 -13 63 2 20 20 14 37 -18 53 -37 19 -39 35 -5 35 14 0 25
5 25 10 0 14 -43 13 -58 -2z"/>
<path d="M8801 3760 c1 -57 2 -60 8 -25 8 48 17 65 37 65 8 0 14 5 14 10 0 14
-27 13 -36 -1 -4 -8 -9 -7 -15 2 -5 9 -8 -11 -8 -51z"/>
<path d="M8880 3760 c0 -33 4 -60 10 -60 6 0 10 27 10 60 0 33 -4 60 -10 60
-6 0 -10 -27 -10 -60z"/>
<path d="M8945 3804 c-19 -20 -19 -78 0 -94 9 -7 27 -10 45 -6 17 3 30 2 30
-2 0 -19 -27 -41 -55 -44 -24 -3 -27 -6 -12 -12 28 -13 67 2 77 30 6 14 10 51
10 83 l0 57 -40 1 c-24 1 -46 -4 -55 -13z m70 -24 c10 -32 -4 -60 -30 -60 -30
0 -46 27 -34 58 11 29 55 31 64 2z"/>
<path d="M9087 3802 c-53 -58 28 -137 83 -82 24 24 25 48 4 78 -19 27 -64 29
-87 4z m78 -22 c3 -11 3 -29 0 -41 -10 -30 -69 -23 -73 9 -6 37 5 52 37 52 21
0 32 -6 36 -20z"/>
<path d="M9220 3758 c0 -70 18 -78 22 -10 3 43 5 47 28 47 23 0 25 -4 28 -47
4 -58 22 -64 22 -7 0 62 -13 78 -60 76 l-40 -1 0 -58z"/>
<path d="M9368 3809 c-26 -15 -25 -85 1 -99 46 -24 91 2 91 53 0 47 -48 72
-92 46z m67 -49 c0 -31 -3 -35 -27 -38 -19 -2 -30 3 -38 17 -16 32 4 63 38 59
24 -3 27 -7 27 -38z"/>
<path d="M9502 3755 c0 -33 3 -46 5 -30 8 67 13 76 36 73 19 -3 22 -10 25 -50
2 -27 7 -48 12 -48 5 0 10 21 12 48 3 40 6 47 26 50 20 3 22 0 22 -47 0 -29 5
-51 11 -51 6 0 9 20 7 51 -3 60 -24 82 -58 62 -12 -8 -21 -9 -25 -3 -3 6 -22
9 -41 7 l-34 -2 2 -60z"/>
<path d="M9704 3794 c-31 -47 6 -104 59 -90 39 9 33 21 -10 21 -20 0 -38 6
-40 13 -3 8 8 12 36 12 36 0 41 3 41 23 0 51 -58 65 -86 21z m70 -9 c4 -12 -3
-15 -29 -15 -26 0 -33 3 -29 15 4 8 16 15 29 15 13 0 25 -7 29 -15z"/>
<path d="M9910 3759 c0 -33 4 -59 10 -59 6 0 10 20 10 45 0 38 4 47 23 54 19
8 24 4 38 -28 31 -69 31 -79 9 -101 -23 -23 -22 -34 2 -25 13 5 35 54 74 158
3 10 1 17 -5 17 -6 0 -11 -5 -11 -10 0 -6 -7 -27 -16 -48 l-16 -37 -18 45
c-17 43 -20 45 -59 46 l-41 2 0 -59z"/>
<path d="M11447 3813 c-14 -14 -6 -19 23 -15 40 6 39 -14 -1 -23 -60 -13 -48
-70 15 -70 l36 -1 0 52 c0 38 -4 53 -16 58 -21 8 -49 8 -57 -1z m53 -73 c-12
-22 -50 -27 -50 -7 0 20 10 27 37 27 21 0 22 -3 13 -20z"/>
<path d="M11640 3760 c0 -33 4 -60 10 -60 6 0 10 27 10 60 0 33 -4 60 -10 60
-6 0 -10 -27 -10 -60z"/>
<path d="M11701 3806 c-15 -18 -5 -41 25 -54 33 -16 30 -32 -7 -32 -17 0 -28
-4 -24 -10 9 -14 48 -13 63 2 20 20 14 37 -18 53 -39 20 -38 35 1 35 17 0 28
4 24 10 -9 15 -51 12 -64 -4z"/>
<path d="M11880 3760 c0 -33 4 -60 10 -60 6 0 10 27 10 60 0 33 -4 60 -10 60
-6 0 -10 -27 -10 -60z"/>
<path d="M11956 3804 c-23 -22 -21 -81 3 -94 25 -13 61 -13 61 0 0 6 -11 10
-25 10 -31 0 -50 32 -35 60 6 12 21 20 35 20 14 0 25 5 25 10 0 16 -47 12 -64
-6z"/>
<path d="M12063 3813 c-24 -9 -14 -42 17 -58 34 -18 31 -35 -6 -35 -13 0 -24
-4 -24 -10 0 -12 40 -13 58 -1 20 12 11 44 -16 56 -30 13 -28 35 3 35 14 0 25
5 25 10 0 10 -35 12 -57 3z"/>
<path d="M13450 3758 c0 -32 4 -58 10 -58 6 0 10 21 10 46 0 37 4 47 20 51 30
8 24 22 -10 21 -30 -1 -30 -1 -30 -60z"/>
<path d="M13545 3810 c-4 -6 7 -10 24 -10 40 0 40 -16 1 -25 -66 -14 -57 -75
10 -72 l40 1 0 46 c0 25 -5 51 -12 58 -15 15 -54 16 -63 2z m53 -67 c-4 -20
-35 -30 -50 -15 -15 15 0 32 28 32 19 0 25 -5 22 -17z"/>
<path d="M13662 3730 c1 -52 3 -78 5 -57 4 33 7 36 28 31 39 -10 65 11 65 54
0 21 -5 43 -12 50 -15 15 -55 16 -64 1 -4 -8 -9 -7 -15 2 -5 8 -8 -25 -7 -81z
m83 50 c9 -29 -12 -60 -40 -60 -29 0 -45 41 -25 65 18 22 57 19 65 -5z"/>
<path d="M13825 3810 c-4 -6 5 -10 19 -10 26 0 31 -9 39 -75 2 -16 5 -5 6 26
1 44 -3 58 -15 63 -23 9 -42 7 -49 -4z"/>
<path d="M13930 3760 c0 -33 4 -60 10 -60 6 0 10 27 10 60 0 33 -4 60 -10 60
-6 0 -10 -27 -10 -60z"/>
<path d="M13990 3758 c0 -70 18 -78 22 -10 3 43 5 47 28 47 23 0 25 -4 28 -47
4 -63 22 -62 22 1 0 57 -12 70 -62 68 l-38 -1 0 -58z"/>
<path d="M14135 3804 c-19 -20 -19 -78 0 -94 9 -7 27 -10 45 -6 17 3 30 2 30
-2 0 -19 -27 -41 -55 -44 -24 -3 -27 -6 -12 -12 28 -13 67 2 77 30 6 14 10 51
10 83 l0 57 -40 1 c-24 1 -46 -4 -55 -13z m70 -24 c10 -32 -4 -60 -30 -60 -30
0 -46 27 -34 58 11 29 55 31 64 2z"/>
<path d="M8923 310 c0 -47 2 -67 4 -45 3 22 10 46 16 54 9 11 9 13 0 8 -8 -5
-13 5 -16 30 -2 21 -4 0 -4 -47z"/>
<path d="M9103 310 c0 -47 2 -73 4 -57 2 15 6 27 9 27 3 0 16 -12 30 -27 l25
-28 -22 32 -23 33 25 27 24 28 -32 -29 -32 -29 -4 54 c-2 34 -3 23 -4 -31z"/>
<path d="M8170 345 c0 -35 0 -35 -45 -35 -25 0 -45 -3 -45 -8 0 -4 20 -6 44
-4 l45 4 4 -39 c2 -21 4 -3 5 40 1 42 0 77 -3 77 -3 0 -5 -16 -5 -35z"/>
<path d="M10050 313 c-14 -27 -26 -51 -28 -55 -2 -5 24 -8 57 -8 34 0 61 3 61
6 0 10 -55 104 -61 104 -3 0 -16 -21 -29 -47z"/>
<path d="M8223 285 c0 -33 2 -45 4 -27 2 18 2 45 0 60 -2 15 -4 0 -4 -33z"/>
<path d="M8416 332 c-3 -5 4 -8 16 -8 12 1 23 -5 26 -13 3 -10 -4 -12 -32 -9
-32 3 -36 1 -36 -18 0 -38 48 -71 65 -44 3 6 -1 7 -10 4 -18 -7 -45 12 -45 32
0 9 12 14 35 14 22 0 35 5 35 13 0 27 -41 49 -54 29z"/>
<path d="M8613 329 c12 -7 18 -24 19 -57 l1 -47 4 43 c4 43 -9 72 -31 72 -6 0
-3 -5 7 -11z"/>
<path d="M8678 322 c9 -10 19 -14 21 -9 2 5 -3 13 -10 18 -24 15 -30 10 -11
-9z"/>
<path d="M8756 332 c-3 -5 5 -8 17 -8 18 1 22 -5 25 -44 4 -59 12 -65 12 -9 0
45 -13 69 -36 69 -7 0 -15 -4 -18 -8z"/>
<path d="M8840 336 c0 -10 28 -13 41 -5 10 6 7 9 -13 9 -16 0 -28 -2 -28 -4z"/>
<path d="M8973 329 c12 -7 18 -24 19 -57 l1 -47 4 43 c4 43 -9 72 -31 72 -6 0
-3 -5 7 -11z"/>
<path d="M9248 330 c35 -15 27 -33 -13 -28 -33 4 -35 2 -35 -24 0 -35 42 -60
63 -38 9 10 9 11 -1 6 -20 -12 -52 4 -52 25 0 15 7 19 35 19 22 0 35 5 35 13
0 18 -21 37 -39 36 -10 0 -7 -4 7 -9z"/>
<path d="M9468 330 c12 -5 22 -15 22 -21 0 -7 3 -9 6 -6 10 10 -16 37 -35 36
-11 0 -9 -3 7 -9z"/>
<path d="M9580 333 c8 -3 22 -11 30 -17 13 -10 13 -9 1 7 -7 9 -21 17 -30 16
-13 0 -14 -1 -1 -6z"/>
<path d="M9698 330 c24 -10 30 -30 10 -30 -9 0 -8 -4 2 -10 13 -8 13 -13 2
-31 -8 -11 -9 -18 -4 -15 6 3 13 0 15 -6 3 -7 6 7 6 33 1 47 -12 69 -38 68
-10 0 -7 -4 7 -9z"/>
<path d="M9773 285 c0 -33 2 -45 4 -27 2 18 2 45 0 60 -2 15 -4 0 -4 -33z"/>
<path d="M9795 330 c-3 -5 -1 -10 4 -10 6 0 11 5 11 10 0 6 -2 10 -4 10 -3 0
-8 -4 -11 -10z"/>
<path d="M8275 319 c-4 -6 -5 -12 -2 -15 2 -3 7 2 10 11 7 17 1 20 -8 4z"/>
<path d="M8341 314 c0 -11 3 -14 6 -6 3 7 2 16 -1 19 -3 4 -6 -2 -5 -13z"/>
<path d="M9845 319 c-4 -6 -5 -12 -2 -15 2 -3 7 2 10 11 7 17 1 20 -8 4z"/>
<path d="M9911 314 c0 -11 3 -14 6 -6 3 7 2 16 -1 19 -3 4 -6 -2 -5 -13z"/>
<path d="M9531 284 c0 -11 3 -14 6 -6 3 7 2 16 -1 19 -3 4 -6 -2 -5 -13z"/>
<path d="M9621 284 c0 -11 3 -14 6 -6 3 7 2 16 -1 19 -3 4 -6 -2 -5 -13z"/>
<path d="M8745 280 c-3 -6 1 -7 9 -4 18 7 21 14 7 14 -6 0 -13 -4 -16 -10z"/>
<path d="M8341 254 c0 -11 3 -14 6 -6 3 7 2 16 -1 19 -3 4 -6 -2 -5 -13z"/>
<path d="M9911 254 c0 -11 3 -14 6 -6 3 7 2 16 -1 19 -3 4 -6 -2 -5 -13z"/>
<path d="M8282 244 c9 -9 21 -15 27 -13 6 2 -2 10 -17 17 -25 11 -25 11 -10
-4z"/>
<path d="M8743 250 c2 -8 12 -16 23 -17 13 -2 15 -1 4 4 -8 3 -19 11 -23 17
-6 7 -7 6 -4 -4z"/>
<path d="M8860 251 c0 -10 19 -25 25 -20 1 2 -3 10 -11 17 -8 7 -14 8 -14 3z"/>
<path d="M9337 239 c3 -9 -5 -27 -16 -38 -12 -12 -17 -21 -12 -21 12 0 28 21
40 51 7 19 6 26 -4 26 -7 0 -10 -8 -8 -18z"/>
<path d="M9852 244 c9 -9 21 -15 27 -13 6 2 -2 10 -17 17 -25 11 -25 11 -10
-4z"/>
<path d="M9460 240 c-8 -5 -10 -10 -5 -10 6 0 17 5 25 10 8 5 11 10 5 10 -5 0
-17 -5 -25 -10z"/>
<path d="M9667 239 c7 -7 15 -10 18 -7 3 3 -2 9 -12 12 -14 6 -15 5 -6 -5z"/>
</g>
</svg>
